<?xml version="1.0" standalone="no"?>
<!DOCTYPE svg PUBLIC "-//W3C//DTD SVG 20010904//EN"
 "http://www.w3.org/TR/2001/REC-SVG-20010904/DTD/svg10.dtd">
<svg version="1.0" xmlns="http://www.w3.org/2000/svg"
 width="450.000000pt" height="277.000000pt" viewBox="0 0 450.000000 277.000000"
 preserveAspectRatio="xMidYMid meet">

<g transform="translate(0.000000,277.000000) scale(0.100000,-0.100000)"
fill="#000000" stroke="none">
<path d="M2232 2495 c-23 -10 -55 -13 -106 -9 -68 5 -75 3 -92 -18 -12 -15
-30 -23 -49 -23 -23 0 -31 -5 -33 -21 -2 -12 -16 -27 -35 -35 -18 -8 -32 -21
-32 -29 1 -8 -10 -29 -22 -47 -13 -17 -23 -38 -23 -46 0 -8 -9 -21 -19 -28
-12 -9 -21 -28 -22 -49 -2 -19 -10 -43 -18 -53 -8 -9 -11 -20 -8 -23 3 -4 0
-16 -8 -28 -19 -27 -19 -60 0 -76 11 -9 13 -16 5 -24 -16 -16 -12 -50 10 -69
14 -12 19 -24 14 -41 -5 -19 0 -27 22 -38 16 -7 34 -24 40 -37 7 -13 16 -26
21 -30 5 -3 16 -18 26 -33 13 -20 26 -28 47 -28 19 0 33 -7 40 -20 6 -11 20
-20 30 -20 11 0 20 -4 20 -9 0 -15 62 -42 82 -35 15 4 18 0 17 -23 -1 -59 -11
-67 -69 -64 -30 1 -67 9 -83 18 -40 20 -70 16 -377 -61 -146 -36 -359 -89
-475 -117 -116 -28 -218 -53 -227 -55 -12 -4 -18 0 -18 10 0 24 -37 56 -64 56
-29 0 -112 -87 -145 -152 l-22 -43 5 58 c8 105 73 214 160 273 28 19 46 34 40
34 -17 0 -86 -53 -123 -95 -88 -101 -125 -300 -85 -465 31 -131 81 -411 73
-415 -8 -6 31 -162 56 -221 8 -20 15 -38 15 -40 0 -2 -89 -5 -197 -7 l-198 -2
201 -3 202 -2 27 -35 c35 -47 62 -72 107 -101 l38 -24 -7 -75 c-4 -53 -3 -75
6 -75 8 0 11 64 11 230 0 216 1 230 19 240 11 5 24 10 29 10 5 0 8 -100 7
-243 -1 -133 -1 -212 2 -176 l4 67 82 3 c105 5 170 35 252 119 l60 60 402 0
402 0 16 -29 c14 -27 17 -29 47 -20 18 5 34 9 36 9 2 0 0 9 -3 20 -6 20 -2 20
357 20 293 0 373 -3 412 -15 63 -19 162 -19 216 0 35 12 118 15 454 17 l411 3
-403 5 -403 5 35 34 c57 56 80 120 80 231 0 164 -53 286 -204 472 -271 332
-478 451 -822 473 -94 6 -108 9 -108 25 0 9 -3 31 -6 46 -5 28 -4 29 31 28 19
-1 48 2 63 7 15 5 53 16 85 25 34 9 57 21 57 29 0 9 14 15 37 17 28 2 41 9 50
27 6 13 19 28 27 33 9 5 16 15 16 23 0 8 15 26 34 40 25 19 32 31 29 46 -4 13
2 27 16 40 22 21 28 54 11 64 -6 4 -4 15 6 30 17 26 12 75 -6 75 -6 0 -10 10
-10 23 0 13 -5 28 -12 35 -6 6 -11 28 -10 48 1 28 -3 37 -18 41 -14 4 -20 14
-20 32 0 34 -114 145 -142 138 -13 -4 -23 2 -30 19 -11 24 -34 34 -73 34 -48
-1 -98 10 -129 28 -39 23 -98 26 -144 7z m-2 -457 c14 -9 25 -10 38 -3 42 25
77 -6 72 -63 -1 -13 6 -29 15 -36 15 -11 15 -13 1 -25 -12 -10 -16 -32 -16
-86 0 -62 -3 -76 -24 -98 -53 -57 -153 -44 -223 29 -47 48 -58 85 -51 168 5
63 38 117 66 109 10 -2 34 0 53 5 46 14 47 14 69 0z m97 -377 c14 -18 24 -49
29 -89 l6 -61 -33 -20 c-53 -33 -95 -36 -148 -14 -50 21 -50 21 -31 108 6 28
13 60 16 72 4 19 12 22 62 26 31 2 62 4 67 5 6 0 20 -12 32 -27z m-348 -115
c38 -20 71 -60 170 -204 104 -153 183 -221 359 -312 34 -17 62 -35 62 -38 0
-19 -104 -292 -111 -292 -4 0 -50 27 -101 60 -51 33 -117 69 -147 81 -65 24
-89 18 -198 -48 -40 -24 -84 -45 -99 -46 -32 -2 -49 21 -41 55 8 29 91 114
129 131 26 11 38 27 21 27 -5 0 -37 -18 -73 -40 -110 -68 -201 -95 -228 -68
-40 40 24 108 147 158 118 48 119 49 98 49 -9 1 -58 -15 -109 -35 -145 -56
-228 -56 -228 1 0 55 86 96 280 133 33 6 8 8 -96 8 -144 -1 -174 6 -174 41 0
46 100 84 263 98 42 4 77 8 77 10 0 1 -20 32 -45 69 -54 81 -74 138 -55 161
16 19 63 19 99 1z m-119 -31 c0 -26 32 -95 69 -150 12 -16 21 -33 21 -36 0 -3
-33 -9 -73 -12 -163 -14 -239 -46 -245 -104 -4 -42 27 -63 93 -64 l50 0 -53
-21 c-60 -24 -112 -70 -112 -99 0 -36 36 -59 91 -59 l51 0 -31 -35 c-35 -40
-38 -60 -14 -87 22 -24 85 -23 141 2 24 11 42 16 40 12 -36 -68 -39 -84 -23
-108 22 -35 59 -31 138 16 53 30 69 36 72 25 15 -48 27 -41 -165 -89 l-55 -14
-13 47 c-7 25 -15 51 -17 58 -3 8 -32 4 -102 -12 -54 -13 -183 -44 -287 -69
-104 -25 -191 -47 -193 -50 -3 -3 0 -28 7 -57 10 -39 10 -53 1 -59 -25 -15
-252 -63 -260 -54 -10 11 -43 145 -37 151 2 2 30 11 62 20 89 23 114 39 114
71 0 44 -16 52 -101 52 -43 0 -80 4 -83 9 -3 5 33 14 82 21 121 17 159 54 114
111 -15 18 -28 22 -68 21 l-49 -1 60 22 c81 29 85 33 85 72 0 46 -29 66 -89
59 -39 -4 -42 -3 -21 6 31 14 40 28 40 62 0 18 -8 33 -23 42 -20 14 -34 13
-131 -4 -60 -11 -111 -20 -114 -20 -7 0 8 32 36 75 25 39 33 44 99 59 40 10
77 15 82 12 5 -3 12 -23 16 -44 3 -20 10 -44 15 -52 10 -16 -6 -19 349 67
l233 56 -6 36 c-3 20 -8 48 -12 62 -6 27 -5 27 98 52 56 14 106 26 111 26 4 1
7 -10 7 -24z m-222 -86 c7 -29 11 -53 10 -54 -2 -1 -118 -30 -259 -64 -140
-34 -265 -64 -276 -67 -18 -5 -23 0 -32 33 -19 67 -18 68 62 86 39 9 162 39
272 66 110 27 203 50 206 50 3 1 11 -22 17 -50z m-778 -69 c28 -28 25 -51 -10
-95 -28 -35 -48 -81 -39 -89 2 -2 59 5 126 17 101 17 124 19 137 8 21 -18 20
-44 -1 -63 -10 -8 -60 -26 -110 -39 -51 -13 -93 -28 -93 -32 0 -5 10 -7 23 -4
12 3 70 11 129 18 120 13 141 7 136 -40 -3 -24 -13 -29 -123 -65 -66 -22 -122
-41 -124 -43 -15 -11 18 -12 102 -2 106 13 127 7 127 -36 0 -34 -20 -44 -121
-61 -51 -8 -95 -17 -98 -20 -3 -2 3 -12 13 -22 13 -13 32 -17 90 -15 80 3 103
-9 91 -46 -9 -29 -130 -65 -192 -58 -96 11 -191 119 -239 273 -45 145 -25 262
66 372 27 33 64 61 83 62 4 0 16 -9 27 -20z m2090 -516 c0 -2 -25 8 -55 23
-37 18 -55 33 -55 45 0 15 10 11 55 -23 30 -23 55 -43 55 -45z m-2147 -131
c20 -18 59 -40 87 -50 27 -10 50 -21 50 -25 0 -5 -1 -8 -2 -8 -2 0 -45 -9 -95
-19 -51 -10 -93 -17 -93 -17 0 1 -9 47 -20 104 -26 135 -25 144 8 91 16 -24
45 -58 65 -76z m1016 54 c5 -13 11 -36 13 -51 l3 -28 -200 -49 c-331 -81 -355
-87 -360 -78 -3 4 -8 27 -11 52 l-6 45 263 65 c145 36 270 66 277 66 7 1 16
-9 21 -22z m397 -259 c76 -141 116 -226 110 -230 -32 -23 -47 -4 -164 217 -65
123 -117 227 -114 230 3 3 15 5 27 5 18 0 42 -38 141 -222z m-641 -33 c-14
-76 -25 -143 -25 -147 0 -4 -22 -8 -49 -8 l-50 0 45 84 c24 45 53 109 64 140
41 121 45 102 15 -69z m1415 -125 l55 -29 -56 -1 c-55 0 -57 1 -61 30 -3 17
-2 30 1 30 3 -1 31 -14 61 -30z"/>
<path d="M2075 1959 c-11 -17 -2 -18 25 -4 24 14 24 14 3 15 -12 0 -25 -5 -28
-11z"/>
<path d="M2220 1955 c27 -14 36 -13 25 4 -3 6 -16 11 -28 11 -21 -1 -21 -1 3
-15z"/>
<path d="M2070 1900 c0 -5 11 -9 25 -8 14 1 25 6 25 10 0 4 -11 8 -25 8 -14 0
-25 -4 -25 -10z"/>
<path d="M2190 1902 c0 -4 11 -9 25 -10 14 -1 25 3 25 8 0 6 -11 10 -25 10
-14 0 -25 -4 -25 -8z"/>
<path d="M2138 1874 c-5 -4 -8 -16 -8 -26 0 -13 7 -18 28 -17 15 1 20 3 10 6
-9 2 -18 13 -20 25 -2 11 -6 16 -10 12z"/>
<path d="M2195 1800 c-3 -5 -19 -10 -36 -10 -33 0 -35 -6 -13 -38 18 -26 69
-30 78 -7 5 15 -9 65 -18 65 -3 0 -8 -4 -11 -10z"/>
<path d="M600 1443 c-28 -48 -60 -129 -59 -151 0 -9 10 11 23 44 12 34 33 78
45 99 12 21 20 39 18 42 -3 2 -15 -13 -27 -34z"/>
<path d="M525 1215 c-8 -57 -1 -124 17 -188 18 -60 19 -37 2 44 -10 49 -13 95
-9 137 8 76 -1 83 -10 7z"/>
<path d="M3762 1053 c85 -91 133 -236 126 -378 -3 -49 -2 -79 3 -65 11 39 10
154 -2 212 -7 29 -22 77 -35 107 -26 59 -92 151 -108 151 -5 0 2 -12 16 -27z"/>
<path d="M3706 930 c53 -93 69 -151 69 -255 0 -95 -2 -103 -37 -173 -20 -40
-31 -68 -24 -62 8 5 26 38 42 73 26 56 29 72 29 167 0 97 -3 111 -33 182 -18
42 -41 83 -50 90 -13 10 -12 6 4 -22z"/>
</g>
</svg>
